<svg xmlns="http://www.w3.org/2000/svg" xmlns:xlink="http://www.w3.org/1999/xlink" width="64" zoomAndPan="magnify" viewBox="0 0 48 48" height="64" preserveAspectRatio="xMidYMid meet" version="1.0"><defs><clipPath id="3d0224ac9c"><path d="M 14.597656 18.378906 L 33.699219 18.378906 L 33.699219 28.667969 L 14.597656 28.667969 Z M 14.597656 18.378906 " clip-rule="nonzero"/></clipPath><clipPath id="4c13bf313e"><path d="M 0.597656 0.378906 L 19.699219 0.378906 L 19.699219 10.632812 L 0.597656 10.632812 Z M 0.597656 0.378906 " clip-rule="nonzero"/></clipPath><clipPath id="32c91e15d6"><rect x="0" width="20" y="0" height="11"/></clipPath></defs><g clip-path="url(#3d0224ac9c)"><g transform="matrix(1, 0, 0, 1, 14, 18)"><g clip-path="url(#32c91e15d6)"><g clip-path="url(#4c13bf313e)"><path fill="#65656a" d="M 19.144531 0.628906 C 18.992188 0.476562 18.777344 0.378906 18.539062 0.378906 C 18.304688 0.378906 18.089844 0.476562 17.9375 0.628906 L 9.996094 8.570312 L 2.058594 0.628906 C 1.90625 0.476562 1.691406 0.378906 1.453125 0.378906 C 0.984375 0.378906 0.601562 0.761719 0.601562 1.234375 C 0.601562 1.472656 0.695312 1.683594 0.851562 1.839844 L 9.394531 10.382812 C 9.546875 10.539062 9.761719 10.632812 9.996094 10.632812 C 10.234375 10.632812 10.449219 10.539062 10.601562 10.382812 L 19.144531 1.839844 C 19.300781 1.683594 19.394531 1.472656 19.394531 1.234375 C 19.394531 1 19.300781 0.785156 19.144531 0.628906 Z M 19.144531 0.628906 " fill-opacity="1" fill-rule="nonzero"/></g></g></g></g></svg>