<svg xmlns="http://www.w3.org/2000/svg" xmlns:xlink="http://www.w3.org/1999/xlink" width="64" zoomAndPan="magnify" viewBox="0 0 48 48" height="64" preserveAspectRatio="xMidYMid meet" version="1.0"><defs><clipPath id="d9f4d73cca"><path d="M 14.597656 16.949219 L 33.699219 16.949219 L 33.699219 30.175781 L 14.597656 30.175781 Z M 14.597656 16.949219 " clip-rule="nonzero"/></clipPath></defs><g clip-path="url(#d9f4d73cca)"><path fill="#65656a" d="M 30.992188 16.953125 L 17 16.953125 C 15.679688 16.953125 14.601562 18.027344 14.601562 19.351562 L 14.601562 27.660156 C 14.601562 28.984375 15.679688 30.0625 17 30.0625 L 30.992188 30.0625 C 32.316406 30.0625 33.394531 28.984375 33.394531 27.660156 L 33.394531 19.351562 C 33.394531 18.027344 32.316406 16.953125 30.992188 16.953125 Z M 30.992188 18.261719 C 31.027344 18.261719 31.054688 18.277344 31.085938 18.28125 L 24.675781 23.351562 C 24.277344 23.667969 23.71875 23.667969 23.320312 23.351562 L 16.910156 18.28125 C 16.941406 18.277344 16.96875 18.261719 17 18.261719 Z M 32.085938 27.660156 C 32.085938 28.261719 31.59375 28.753906 30.992188 28.753906 L 17 28.753906 C 16.398438 28.753906 15.910156 28.261719 15.910156 27.660156 L 15.910156 19.351562 C 15.910156 19.292969 15.933594 19.242188 15.945312 19.183594 L 22.507812 24.378906 C 22.945312 24.722656 23.472656 24.898438 23.996094 24.898438 C 24.523438 24.898438 25.046875 24.722656 25.488281 24.378906 L 32.050781 19.183594 C 32.058594 19.242188 32.085938 19.292969 32.085938 19.351562 Z M 32.085938 27.660156 " fill-opacity="1" fill-rule="nonzero"/></g></svg>