<svg xmlns="http://www.w3.org/2000/svg" xmlns:xlink="http://www.w3.org/1999/xlink" width="64" zoomAndPan="magnify" viewBox="0 0 48 48" height="64" preserveAspectRatio="xMidYMid meet" version="1.0"><defs><clipPath id="65f0747641"><path d="M 14.597656 14.105469 L 33.699219 14.105469 L 33.699219 33 L 14.597656 33 Z M 14.597656 14.105469 " clip-rule="nonzero"/></clipPath></defs><g clip-path="url(#65f0747641)"><path fill="#65656a" d="M 23.996094 14.105469 C 18.804688 14.105469 14.597656 18.316406 14.597656 23.507812 C 14.597656 28.699219 18.804688 32.910156 23.996094 32.910156 C 29.191406 32.910156 33.398438 28.699219 33.398438 23.507812 C 33.398438 18.316406 29.191406 14.105469 23.996094 14.105469 Z M 23.996094 32.199219 C 19.199219 32.199219 15.308594 28.308594 15.308594 23.507812 C 15.308594 18.707031 19.199219 14.816406 23.996094 14.816406 C 28.796875 14.816406 32.6875 18.707031 32.6875 23.507812 C 32.6875 28.308594 28.796875 32.199219 23.996094 32.199219 Z M 23.996094 32.199219 " fill-opacity="1" fill-rule="nonzero"/></g><path fill="#65656a" d="M 22.894531 28.117188 C 22.660156 28.140625 22.46875 28.164062 22.28125 28.175781 C 21.207031 28.226562 20.414062 27.800781 19.933594 26.816406 C 19.777344 26.5 19.582031 26.203125 19.378906 25.921875 C 19.253906 25.75 19.082031 25.613281 18.925781 25.46875 L 18.921875 25.46875 C 18.824219 25.382812 18.867188 25.21875 18.996094 25.199219 C 19.148438 25.171875 19.289062 25.199219 19.425781 25.234375 C 19.859375 25.34375 20.136719 25.652344 20.355469 26.015625 C 20.855469 26.84375 21.714844 27.1875 22.644531 26.941406 C 22.800781 26.902344 22.871094 26.832031 22.90625 26.660156 C 22.945312 26.460938 23 26.261719 23.058594 26.0625 C 23.09375 25.933594 23.078125 25.816406 23.011719 25.703125 C 22.949219 25.589844 22.851562 25.519531 22.722656 25.488281 L 22.71875 25.488281 C 21.753906 25.257812 20.921875 24.828125 20.386719 23.949219 C 20.097656 23.476562 19.957031 22.957031 19.964844 22.417969 C 19.972656 21.804688 20.027344 21.1875 20.097656 20.578125 C 20.148438 20.148438 20.347656 19.769531 20.65625 19.460938 C 20.761719 19.351562 20.769531 19.261719 20.71875 19.125 C 20.507812 18.554688 20.542969 17.980469 20.730469 17.410156 C 20.785156 17.25 20.859375 17.226562 21.015625 17.273438 C 21.492188 17.425781 21.847656 17.734375 22.164062 18.105469 L 22.164062 18.109375 C 22.34375 18.324219 22.566406 18.386719 22.828125 18.300781 C 23.820312 17.976562 25.324219 17.972656 26.257812 18.292969 C 26.523438 18.386719 26.746094 18.324219 26.925781 18.105469 L 26.929688 18.101562 C 27.246094 17.730469 27.601562 17.421875 28.078125 17.273438 C 28.238281 17.222656 28.308594 17.257812 28.359375 17.414062 C 28.542969 17.988281 28.578125 18.554688 28.375 19.132812 C 28.347656 19.214844 28.347656 19.355469 28.398438 19.40625 C 28.824219 19.839844 29.011719 20.378906 29.0625 20.960938 C 29.105469 21.527344 29.15625 22.101562 29.105469 22.660156 C 28.96875 24.117188 28.082031 24.964844 26.734375 25.386719 C 26.621094 25.421875 26.503906 25.453125 26.382812 25.480469 C 26.25 25.511719 26.152344 25.589844 26.089844 25.707031 C 26.023438 25.824219 26.011719 25.949219 26.058594 26.078125 C 26.242188 26.609375 26.210938 27.175781 26.210938 27.742188 C 26.210938 27.871094 26.207031 28 26.207031 28.128906 C 26.207031 28.347656 26.167969 28.554688 26.082031 28.757812 C 26 28.957031 25.882812 29.132812 25.726562 29.285156 C 25.574219 29.441406 25.398438 29.558594 25.195312 29.640625 C 24.996094 29.722656 24.785156 29.765625 24.570312 29.765625 L 24.53125 29.765625 C 24.316406 29.765625 24.105469 29.722656 23.90625 29.640625 C 23.703125 29.558594 23.527344 29.4375 23.375 29.285156 C 23.21875 29.132812 23.101562 28.953125 23.019531 28.753906 C 22.9375 28.550781 22.894531 28.34375 22.894531 28.125 Z M 22.894531 28.117188 " fill-opacity="1" fill-rule="nonzero"/></svg>