<svg xmlns="http://www.w3.org/2000/svg" xmlns:xlink="http://www.w3.org/1999/xlink" width="64" zoomAndPan="magnify" viewBox="0 0 48 48" height="64" preserveAspectRatio="xMidYMid meet" version="1.0"><defs><clipPath id="2e5da33c96"><path d="M 15.886719 16.117188 L 32.046875 16.117188 L 32.046875 30.8125 L 15.886719 30.8125 Z M 15.886719 16.117188 " clip-rule="nonzero"/></clipPath></defs><g clip-path="url(#2e5da33c96)"><path fill="#65656a" d="M 28.691406 22.339844 L 32.105469 30.878906 L 30.433594 30.878906 L 29.5 28.550781 L 26.328125 28.550781 L 25.394531 30.878906 L 23.726562 30.878906 L 27.140625 22.339844 Z M 22.09375 16.132812 L 22.09375 17.683594 L 26.75 17.683594 L 26.75 19.238281 L 25.222656 19.238281 C 24.617188 21.058594 23.683594 22.6875 22.414062 24.128906 C 22.976562 24.628906 23.578125 25.070312 24.226562 25.453125 L 23.644531 26.910156 C 22.808594 26.433594 22.03125 25.875 21.316406 25.230469 C 19.914062 26.503906 18.3125 27.417969 16.503906 27.984375 L 16.089844 26.488281 C 17.636719 25.996094 19.011719 25.207031 20.222656 24.128906 C 19.332031 23.121094 18.601562 22.007812 18.03125 20.789062 L 19.769531 20.789062 C 20.203125 21.589844 20.71875 22.335938 21.316406 23.023438 C 22.296875 21.894531 23.046875 20.632812 23.578125 19.238281 L 15.886719 19.238281 L 15.886719 17.683594 L 20.542969 17.683594 L 20.542969 16.132812 Z M 27.914062 24.582031 L 26.945312 26.996094 L 28.882812 26.996094 Z M 27.914062 24.582031 " fill-opacity="1" fill-rule="nonzero"/></g></svg>