<svg xmlns="http://www.w3.org/2000/svg" xmlns:xlink="http://www.w3.org/1999/xlink" width="64" zoomAndPan="magnify" viewBox="0 0 48 48" height="64" preserveAspectRatio="xMidYMid meet" version="1.0"><defs><clipPath id="c7a2a3427e"><path d="M 14.878906 14.105469 L 33.246094 14.105469 L 33.246094 33 L 14.878906 33 Z M 14.878906 14.105469 " clip-rule="nonzero"/></clipPath><clipPath id="db382252df"><path d="M 27.074219 26.890625 L 28.25 26.890625 L 28.25 28.066406 L 27.074219 28.066406 Z M 27.074219 26.890625 " clip-rule="nonzero"/></clipPath><clipPath id="2ba1d7bb27"><path d="M 27.660156 26.890625 C 27.335938 26.890625 27.074219 27.152344 27.074219 27.476562 C 27.074219 27.800781 27.335938 28.066406 27.660156 28.066406 C 27.984375 28.066406 28.25 27.800781 28.25 27.476562 C 28.25 27.152344 27.984375 26.890625 27.660156 26.890625 Z M 27.660156 26.890625 " clip-rule="nonzero"/></clipPath><clipPath id="ba3a5a9f78"><path d="M 0.0742188 0.890625 L 1.25 0.890625 L 1.25 2.066406 L 0.0742188 2.066406 Z M 0.0742188 0.890625 " clip-rule="nonzero"/></clipPath><clipPath id="b988cdf94b"><path d="M 0.660156 0.890625 C 0.335938 0.890625 0.0742188 1.152344 0.0742188 1.476562 C 0.0742188 1.800781 0.335938 2.066406 0.660156 2.066406 C 0.984375 2.066406 1.25 1.800781 1.25 1.476562 C 1.25 1.152344 0.984375 0.890625 0.660156 0.890625 Z M 0.660156 0.890625 " clip-rule="nonzero"/></clipPath><clipPath id="10493d7864"><rect x="0" width="2" y="0" height="3"/></clipPath></defs><g clip-path="url(#c7a2a3427e)"><path fill="#65656a" d="M 32.742188 31.402344 L 28.238281 27.074219 C 29.574219 25.640625 30.308594 23.785156 30.308594 21.816406 C 30.308594 19.847656 29.503906 17.820312 28.050781 16.363281 C 26.59375 14.90625 24.65625 14.105469 22.597656 14.105469 C 20.539062 14.105469 18.605469 14.90625 17.148438 16.363281 C 15.691406 17.820312 14.890625 19.757812 14.890625 21.816406 C 14.890625 23.875 15.691406 25.8125 17.148438 27.265625 C 18.605469 28.722656 20.539062 29.523438 22.597656 29.523438 C 24.152344 29.523438 25.632812 29.070312 26.894531 28.21875 L 31.523438 32.667969 C 31.6875 32.824219 31.90625 32.914062 32.132812 32.914062 C 32.363281 32.914062 32.601562 32.816406 32.765625 32.644531 C 33.101562 32.292969 33.09375 31.734375 32.742188 31.398438 Z M 25.984375 26.875 C 25.015625 27.527344 23.855469 27.90625 22.597656 27.90625 C 19.234375 27.90625 16.511719 25.179688 16.511719 21.816406 C 16.511719 18.453125 19.234375 15.726562 22.597656 15.726562 C 25.960938 15.726562 28.6875 18.453125 28.6875 21.816406 C 28.6875 23.484375 28.015625 24.992188 26.929688 26.09375 C 26.644531 26.386719 26.328125 26.648438 25.984375 26.875 Z M 25.984375 26.875 " fill-opacity="1" fill-rule="nonzero"/></g><g clip-path="url(#db382252df)"><g clip-path="url(#2ba1d7bb27)"><g transform="matrix(1, 0, 0, 1, 27, 26)"><g clip-path="url(#10493d7864)"><g clip-path="url(#ba3a5a9f78)"><g clip-path="url(#b988cdf94b)"><path fill="#65656a" d="M 0.0742188 0.890625 L 1.25 0.890625 L 1.25 2.066406 L 0.0742188 2.066406 Z M 0.0742188 0.890625 " fill-opacity="1" fill-rule="nonzero"/></g></g></g></g></g></g></svg>