<svg xmlns="http://www.w3.org/2000/svg" xmlns:xlink="http://www.w3.org/1999/xlink" width="64" zoomAndPan="magnify" viewBox="0 0 48 48" height="64" preserveAspectRatio="xMidYMid meet" version="1.0"><path fill="#ffffff" d="M 25.175781 23.511719 L 28.703125 19.984375 C 29.027344 19.660156 29.027344 19.132812 28.703125 18.808594 C 28.378906 18.484375 27.851562 18.484375 27.527344 18.808594 L 24 22.335938 L 20.472656 18.808594 C 20.148438 18.484375 19.625 18.484375 19.296875 18.808594 C 18.972656 19.132812 18.972656 19.660156 19.300781 19.984375 L 22.824219 23.511719 L 19.300781 27.039062 C 18.972656 27.363281 18.972656 27.890625 19.296875 28.214844 C 19.621094 28.539062 20.148438 28.539062 20.472656 28.210938 L 24 24.6875 L 27.527344 28.210938 C 27.851562 28.539062 28.378906 28.539062 28.703125 28.214844 C 29.027344 27.890625 29.027344 27.363281 28.703125 27.039062 Z M 25.175781 23.511719 " fill-opacity="1" fill-rule="evenodd"/></svg>