<svg xmlns="http://www.w3.org/2000/svg" xmlns:xlink="http://www.w3.org/1999/xlink" width="64" zoomAndPan="magnify" viewBox="0 0 48 48" height="64" preserveAspectRatio="xMidYMid meet" version="1.0"><defs><clipPath id="25197e0846"><path d="M 14.597656 15.976562 L 33.699219 15.976562 L 33.699219 31.402344 L 14.597656 31.402344 Z M 14.597656 15.976562 " clip-rule="nonzero"/></clipPath><clipPath id="874faa5354"><path d="M 4 0.976562 L 19.398438 0.976562 L 19.398438 4 L 4 4 Z M 4 0.976562 " clip-rule="nonzero"/></clipPath><clipPath id="ed38aa9d97"><path d="M 0.625 7 L 19.371094 7 L 19.371094 10.050781 L 0.625 10.050781 Z M 0.625 7 " clip-rule="nonzero"/></clipPath><clipPath id="c879f58bca"><path d="M 7.695312 13.003906 L 19.371094 13.003906 L 19.371094 16.039062 L 7.695312 16.039062 Z M 7.695312 13.003906 " clip-rule="nonzero"/></clipPath><clipPath id="cf49f7dbce"><rect x="0" width="20" y="0" height="17"/></clipPath></defs><g clip-path="url(#25197e0846)"><g transform="matrix(1, 0, 0, 1, 14, 15)"><g clip-path="url(#cf49f7dbce)"><g clip-path="url(#874faa5354)"><path fill="#ffffff" d="M 6.0625 3.988281 L 17.863281 3.988281 C 18.695312 3.988281 19.371094 3.3125 19.371094 2.480469 C 19.371094 1.648438 18.695312 0.976562 17.863281 0.976562 L 6.0625 0.976562 C 5.230469 0.976562 4.554688 1.648438 4.554688 2.480469 C 4.554688 3.3125 5.230469 3.988281 6.0625 3.988281 " fill-opacity="1" fill-rule="nonzero"/></g><g clip-path="url(#ed38aa9d97)"><path fill="#ffffff" d="M 2.128906 10.011719 L 17.863281 10.011719 C 18.695312 10.011719 19.371094 9.339844 19.371094 8.507812 C 19.371094 7.675781 18.695312 7 17.863281 7 L 2.128906 7 C 1.296875 7 0.625 7.675781 0.625 8.507812 C 0.625 9.339844 1.296875 10.011719 2.128906 10.011719 " fill-opacity="1" fill-rule="nonzero"/></g><g clip-path="url(#c879f58bca)"><path fill="#ffffff" d="M 9.238281 16.039062 L 17.863281 16.039062 C 18.695312 16.039062 19.371094 15.363281 19.371094 14.53125 C 19.371094 13.699219 18.695312 13.027344 17.863281 13.027344 L 9.238281 13.027344 C 8.40625 13.027344 7.734375 13.699219 7.734375 14.53125 C 7.734375 15.363281 8.40625 16.039062 9.238281 16.039062 " fill-opacity="1" fill-rule="nonzero"/></g></g></g></g></svg>