<svg xmlns="http://www.w3.org/2000/svg" xmlns:xlink="http://www.w3.org/1999/xlink" width="64" zoomAndPan="magnify" viewBox="0 0 48 48" height="64" preserveAspectRatio="xMidYMid meet" version="1.0"><defs><clipPath id="7ba4a50728"><path d="M 14.648438 14.105469 L 33.015625 14.105469 L 33.015625 33 L 14.648438 33 Z M 14.648438 14.105469 " clip-rule="nonzero"/></clipPath></defs><g clip-path="url(#7ba4a50728)"><path fill="#65656a" d="M 30.621094 16.847656 C 28.863281 15.085938 26.527344 14.117188 24.035156 14.117188 C 18.902344 14.117188 14.726562 18.292969 14.726562 23.425781 C 14.726562 25.066406 15.152344 26.667969 15.96875 28.078125 L 14.648438 32.902344 L 19.582031 31.609375 C 20.941406 32.351562 22.472656 32.742188 24.03125 32.742188 L 24.035156 32.742188 C 29.167969 32.742188 33.34375 28.566406 33.34375 23.433594 C 33.34375 20.945312 32.378906 18.605469 30.621094 16.847656 Z M 24.035156 31.171875 L 24.03125 31.171875 C 22.644531 31.171875 21.28125 30.796875 20.09375 30.089844 L 19.8125 29.921875 L 16.882812 30.691406 L 17.664062 27.835938 L 17.480469 27.542969 C 16.703125 26.3125 16.296875 24.886719 16.296875 23.425781 C 16.300781 19.160156 19.769531 15.6875 24.039062 15.6875 C 26.105469 15.6875 28.046875 16.496094 29.507812 17.957031 C 30.96875 19.417969 31.773438 21.363281 31.773438 23.433594 C 31.769531 27.699219 28.300781 31.171875 24.035156 31.171875 Z M 28.28125 25.375 C 28.046875 25.257812 26.902344 24.695312 26.691406 24.617188 C 26.476562 24.539062 26.324219 24.503906 26.167969 24.734375 C 26.011719 24.96875 25.566406 25.492188 25.429688 25.648438 C 25.296875 25.800781 25.160156 25.820312 24.925781 25.703125 C 24.695312 25.589844 23.945312 25.34375 23.054688 24.550781 C 22.363281 23.933594 21.898438 23.171875 21.761719 22.9375 C 21.625 22.707031 21.746094 22.578125 21.863281 22.464844 C 21.96875 22.359375 22.097656 22.191406 22.210938 22.054688 C 22.328125 21.921875 22.367188 21.824219 22.445312 21.667969 C 22.523438 21.511719 22.484375 21.375 22.425781 21.261719 C 22.367188 21.144531 21.902344 20 21.707031 19.53125 C 21.519531 19.078125 21.328125 19.140625 21.183594 19.132812 C 21.050781 19.125 20.894531 19.125 20.738281 19.125 C 20.585938 19.125 20.332031 19.183594 20.117188 19.414062 C 19.90625 19.648438 19.304688 20.210938 19.304688 21.355469 C 19.304688 22.5 20.136719 23.605469 20.253906 23.761719 C 20.371094 23.917969 21.894531 26.269531 24.230469 27.277344 C 24.785156 27.515625 25.21875 27.660156 25.554688 27.765625 C 26.113281 27.945312 26.621094 27.917969 27.019531 27.859375 C 27.46875 27.792969 28.398438 27.296875 28.589844 26.75 C 28.785156 26.207031 28.785156 25.742188 28.726562 25.644531 C 28.667969 25.546875 28.511719 25.492188 28.28125 25.375 Z M 28.28125 25.375 " fill-opacity="1" fill-rule="evenodd"/></g></svg>